<mxfile host="app.diagrams.net" modified="2024-04-01T06:20:37.966Z" agent="Mozilla/5.0 (Windows NT 10.0; Win64; x64) AppleWebKit/537.36 (KHTML, like Gecko) Chrome/123.0.0.0 Safari/537.36" version="24.2.1" etag="8QGw3hGT5a4QvbaBfC0n" type="github">
  <diagram name="Halaman-1" id="COJZ1C6PaxnJSr1SIZYC">
    <mxGraphModel>
      <root>
        <mxCell id="0" />
        <mxCell id="1" parent="0" />
      </root>
    </mxGraphModel>
  </diagram>
</mxfile>
